# Blender 5.1.1
# www.blender.org
mtllib Glass.mtl
o Glass
v 0.500000 1.000000 -0.500000
v 0.500000 1.000000 0.500000
v 0.500000 0.000000 -0.500000
v 0.500000 0.000000 0.500000
v -0.500000 1.000000 0.500000
v -0.500000 1.000000 -0.500000
v -0.500000 0.000000 0.500000
v -0.500000 0.000000 -0.500000
vn 1.0000 -0.0000 -0.0000
vn -1.0000 -0.0000 -0.0000
vn -0.0000 1.0000 -0.0000
vn -0.0000 -1.0000 -0.0000
vn -0.0000 -0.0000 1.0000
vn -0.0000 -0.0000 -1.0000
vt 1.000000 0.000000
vt 1.000000 1.000000
vt 0.000000 1.000000
vt 0.000000 0.000000
s 0
usemtl material_2.002
f 3/1/1 1/2/1 2/3/1
f 3/1/1 2/3/1 4/4/1
f 7/4/2 5/3/2 6/2/2
f 7/4/2 6/2/2 8/1/2
f 2/1/3 1/2/3 6/3/3
f 2/1/3 6/3/3 5/4/3
f 3/2/4 4/1/4 7/4/4
f 3/2/4 7/4/4 8/3/4
f 4/1/5 2/2/5 5/3/5
f 4/1/5 5/3/5 7/4/5
f 8/4/6 6/3/6 1/2/6
f 8/4/6 1/2/6 3/1/6
