# Blender 5.1.1
# www.blender.org
mtllib Glow.mtl
o Glow
v 0.250000 0.687500 -0.250000
v 0.250000 0.687500 0.250000
v 0.250000 0.125000 -0.250000
v 0.250000 0.125000 0.250000
v -0.250000 0.687500 0.250000
v -0.250000 0.687500 -0.250000
v -0.250000 0.125000 0.250000
v -0.250000 0.125000 -0.250000
vn 1.0000 -0.0000 -0.0000
vn -1.0000 -0.0000 -0.0000
vn -0.0000 1.0000 -0.0000
vn -0.0000 -1.0000 -0.0000
vn -0.0000 -0.0000 1.0000
vn -0.0000 -0.0000 -1.0000
vt 0.944444 0.055556
vt 0.944444 0.944444
vt 0.055556 0.941406
vt 0.055556 0.055032
vt 0.055556 0.055556
s 0
f 3/1/1 1/2/1 2/3/1
f 3/1/1 2/3/1 4/4/1
f 7/5/2 5/3/2 6/2/2
f 7/5/2 6/2/2 8/1/2
f 2/1/3 1/2/3 6/3/3
f 2/1/3 6/3/3 5/5/3
f 3/2/4 4/1/4 7/5/4
f 3/2/4 7/5/4 8/3/4
f 4/1/5 2/2/5 5/3/5
f 4/1/5 5/3/5 7/5/5
f 8/4/6 6/3/6 1/2/6
f 8/4/6 1/2/6 3/1/6
