# Blender 5.1.1
# www.blender.org
mtllib Obsideon.mtl
o Obsideon
v 0.312500 0.125000 -0.312500
v 0.312500 0.125000 0.312500
v 0.312500 0.000000 -0.312500
v 0.312500 0.000000 0.312500
v -0.312500 0.125000 0.312500
v -0.312500 0.125000 -0.312500
v -0.312500 0.000000 0.312500
v -0.312500 0.000000 -0.312500
vn 1.0000 -0.0000 -0.0000
vn -1.0000 -0.0000 -0.0000
vn -0.0000 1.0000 -0.0000
vn -0.0000 -1.0000 -0.0000
vn -0.0000 -0.0000 1.0000
vn -0.0000 -0.0000 -1.0000
vt 1.000000 0.400000
vt 1.000000 0.600000
vt 0.000000 0.600000
vt 0.000000 0.400000
vt 1.000000 0.000000
vt 1.000000 1.000000
vt 0.000000 1.000000
vt 0.000000 0.000000
s 0
f 3/1/1 1/2/1 2/3/1
f 3/1/1 2/3/1 4/4/1
f 7/4/2 5/3/2 6/2/2
f 7/4/2 6/2/2 8/1/2
f 2/5/3 1/6/3 6/7/3
f 2/5/3 6/7/3 5/8/3
f 3/6/4 4/5/4 7/8/4
f 3/6/4 7/8/4 8/7/4
f 4/1/5 2/2/5 5/3/5
f 4/1/5 5/3/5 7/4/5
f 8/4/6 6/3/6 1/2/6
f 8/4/6 1/2/6 3/1/6
