# Blender 5.0.1
# www.blender.org
o Plane
v 23.478722 11.209636 0.061128
v -21.791527 11.209853 0.060493
v 23.479946 -11.550426 0.063332
v 0.778367 -12.182848 26.912609
v 21.782953 -12.184136 14.514247
v 24.097857 -12.182850 7.774795
v 5.529418 -12.219143 26.460630
v 12.080210 -12.193989 24.213432
v 17.628323 -12.273851 20.064667
v 19.893391 -17.981346 16.176857
v 21.997025 -18.619482 11.980745
v 23.148815 -18.968880 7.814241
v 7.199069 -18.603586 25.245644
v 11.053783 -20.615698 23.092440
v 14.789065 -21.544540 20.070055
v 20.794525 -22.478357 0.077482
v 1.571514 -16.933399 26.546379
v 17.523218 -25.170927 14.278158
v 18.979734 -26.885611 8.003067
v 16.698776 -27.712091 0.066518
v 13.539282 -28.690374 14.819836
v 11.839445 -32.826775 7.823537
v 1.815270 -25.522476 22.986876
v 8.769263 -28.502941 18.715797
v 7.544157 -33.155422 12.294987
v 0.778367 -21.448397 25.084629
v 1.198291 -29.059753 20.084126
v 2.374640 -31.935495 16.402843
v 3.097402 -35.488247 7.823533
v -0.996701 -34.148140 12.294976
v -5.997696 -34.601685 7.823539
v -6.197433 -17.907772 25.329618
v -6.001416 -25.791683 21.621592
v -8.868355 -29.493416 16.402843
v -5.596198 -32.242260 14.497855
v -12.900788 -29.460150 12.294982
v -14.061219 -30.302059 7.823524
v -3.938033 -12.381241 26.519735
v -10.312575 -19.456839 22.982016
v -12.880301 -23.977732 18.851982
v -16.859804 -21.216629 16.402842
v -18.471249 -22.910212 12.294981
v -19.865520 -23.243961 7.823538
v -15.333543 -17.287592 19.924011
v -19.005207 -12.405834 16.470592
v -21.553337 -17.053474 10.074011
v -10.864690 -12.193008 23.999903
v -16.034044 -12.182848 19.948683
v -22.093330 -12.185254 10.075836
v -21.791451 -11.548219 0.059956
v 23.067728 -15.969816 0.121177
v 11.360272 -31.720562 0.077481
v 2.840673 -34.209450 0.082882
v -3.785415 -33.711586 0.082630
v -10.084828 -31.499886 0.091837
v -16.888922 -25.798882 0.067831
v -20.991226 -17.928867 0.091837
v 0.778367 11.817148 26.912609
v 15.707304 11.840098 21.821726
v 20.758133 12.129939 16.233503
v 23.649240 11.815001 10.076949
v 5.500051 12.012569 26.518421
v 9.981749 11.823206 25.090021
v 16.890282 16.921886 19.924007
v 21.838774 18.465662 12.147110
v 23.183502 18.638302 7.823542
v 6.503256 18.792982 25.329618
v 11.742948 19.280256 22.982014
v 18.223730 21.210678 16.420210
v 12.748494 23.527081 20.195152
v 18.833088 25.586470 10.706993
v 13.177675 27.198545 16.519686
v 15.311558 30.173134 7.813563
v 15.455233 28.645887 0.073870
v 0.301982 16.654001 26.518559
v 6.948946 23.524220 22.931574
v 11.505701 31.066792 12.294984
v 5.779125 27.992313 19.923656
v 6.324012 30.903788 16.297747
v 7.340353 34.235798 7.999964
v 9.515779 32.146927 0.072332
v 0.578977 25.015324 23.031576
v -2.571793 20.481928 25.161510
v -2.307804 28.275648 20.195152
v 2.704987 33.021191 14.201844
v -1.493810 35.127155 7.823534
v -5.305891 30.677074 16.402840
v -5.247801 33.014084 12.294978
v -6.871719 22.671795 22.967054
v -10.241180 32.483273 7.823532
v -10.858452 24.047855 20.084129
v -12.060115 26.913109 16.402845
v -12.900787 29.094448 12.294982
v -17.310934 26.693163 7.823543
v -3.973466 11.900631 26.480680
v -7.599726 15.456605 25.138964
v -11.012658 17.924076 22.893425
v -16.859802 20.850933 16.402840
v -18.471249 22.544514 12.294979
v -15.255424 16.989729 19.986908
v -21.626764 18.638308 7.823534
v -19.011845 12.037208 16.458376
v -20.766029 16.102631 12.235077
v -10.864460 11.825654 24.000025
v -16.034050 11.817148 19.948677
v -22.093468 11.820177 10.075530
v 22.678547 17.590221 0.091838
v 19.788086 23.608501 0.082630
v 2.840670 33.870819 0.082882
v -3.785401 33.372955 0.082630
v -10.084823 31.161255 0.091837
v -16.888916 25.460253 0.067831
v -20.991226 17.590233 0.091837
v 22.572826 -12.182882 3.197255
v 22.572834 11.817150 3.197263
v 19.252726 -12.182882 14.826405
v 19.252731 11.817148 14.826416
v 11.338542 -12.182882 22.085911
v 11.338542 11.817147 22.085924
v 4.992331 -12.182882 24.321243
v 4.992337 11.817147 24.321251
v -1.726220 -12.182882 24.684654
v -1.726205 11.817148 24.684666
v -9.781792 -12.182881 22.085911
v -16.229668 -12.182879 16.602249
v -11.816066 11.817151 21.006384
v -20.088221 -12.182878 9.068516
v -18.529942 11.817152 13.025414
v -20.821651 -12.182876 3.136259
v -21.007376 11.817156 3.256522
v 21.424101 -8.715670 9.796627
v 19.728037 8.349427 13.696429
v 17.303732 -8.714786 17.190405
v 12.468526 8.348695 21.610619
v 9.122177 -8.714336 23.279978
v 0.778380 8.348610 24.939671
v -0.971177 -8.739319 24.758848
v -9.113247 8.336786 22.443272
v -9.110770 -8.714778 22.444580
v -15.746646 8.351835 17.190800
v -17.091743 -8.715899 15.730704
v -19.917551 8.337177 9.646825
v 22.674065 8.348877 3.325974
v 22.378401 -8.716919 3.136259
v -21.108089 -8.594027 3.373011
v -20.821646 8.748686 3.136265
v 23.413893 -9.803943 3.136261
v 23.326046 9.437252 3.136261
v -21.944492 -9.803960 3.136196
v -21.944618 9.438334 3.136261
vn 0.8802 -0.1078 0.4622
vn 0.6809 -0.1620 0.7142
vn 0.7850 -0.2478 0.5678
vn 0.8894 -0.2805 0.3610
vn 0.2167 -0.0988 0.9712
vn 0.2639 -0.2736 0.9249
vn 0.4813 -0.1536 0.8630
vn 0.9793 -0.1847 -0.0823
vn 0.9491 -0.3005 0.0942
vn 0.8745 -0.4701 -0.1197
vn 0.5963 -0.3832 0.7054
vn 0.7092 -0.5327 0.4617
vn -0.0007 -0.0770 0.9970
vn 0.0258 -0.1985 0.9798
vn 0.5320 -0.6976 0.4798
vn 0.7687 -0.6308 0.1057
vn 0.6889 -0.7111 -0.1404
vn 0.4312 -0.3577 0.8283
vn 0.3342 -0.6693 0.6636
vn 0.0621 -0.5455 0.8358
vn 0.4752 -0.8764 0.0786
vn 0.2816 -0.8790 0.3848
vn 0.1019 -0.9926 0.0666
vn -0.0153 -0.3938 0.9191
vn -0.0006 -0.7153 0.6988
vn 0.0687 -0.8348 0.5462
vn -0.0624 -0.9248 0.3754
vn -0.2937 -0.9530 0.0741
vn -0.2683 -0.8341 0.4820
vn -0.2751 -0.5716 0.7731
vn -0.1884 -0.9669 -0.1719
vn -0.4842 -0.8578 -0.1725
vn -0.2786 -0.2490 0.9276
vn -0.4042 -0.7173 0.5675
vn -0.5783 -0.7184 0.3867
vn -0.6315 -0.7714 0.0781
vn -0.7722 -0.6145 -0.1616
vn -0.1993 -0.1069 0.9741
vn -0.4740 -0.3076 0.8251
vn -0.8763 -0.4757 0.0765
vn -0.9649 -0.2500 -0.0802
vn -0.5711 -0.5045 0.6476
vn -0.6794 -0.2089 0.7034
vn -0.4919 -0.1160 0.8629
vn -0.7533 -0.3660 0.5464
vn -0.8273 -0.1599 0.5386
vn -0.9809 -0.1089 0.1613
vn -0.9547 -0.1998 0.2206
vn -0.6900 -0.0982 0.7171
vn -0.9769 -0.0878 -0.1947
vn -0.8267 -0.1498 -0.5423
vn -0.8746 -0.2775 -0.3977
vn -0.1988 -0.1231 -0.9723
vn -0.2304 -0.2881 -0.9295
vn -0.4031 -0.1344 -0.9052
vn -0.6827 -0.2191 -0.6971
vn -0.7336 -0.3918 -0.5553
vn -0.7745 -0.5816 -0.2487
vn -0.9480 -0.3067 -0.0845
vn -0.4685 -0.2911 -0.8341
vn -0.5012 -0.4950 -0.7098
vn -0.5228 -0.6494 -0.5523
vn -0.4486 -0.8089 -0.3799
vn 0.0002 -0.0812 -0.9967
vn 0.0198 -0.2082 -0.9779
vn -0.2541 -0.5008 -0.8274
vn -0.2085 -0.6806 -0.7023
vn -0.6269 -0.7751 -0.0795
vn -0.2780 -0.9563 -0.0903
vn -0.3870 -0.9091 0.1543
vn -0.0923 -0.9820 0.1648
vn -0.0000 -0.5444 -0.8388
vn -0.2487 -0.7958 -0.5521
vn -0.0735 -0.8858 -0.4582
vn 0.1341 -0.6941 -0.7072
vn 0.0946 -0.9928 -0.0731
vn 0.1357 -0.3605 -0.9228
vn 0.2141 -0.9621 0.1691
vn 0.2678 -0.7822 -0.5625
vn 0.2598 -0.8890 -0.3771
vn 0.4694 -0.8801 -0.0715
vn 0.3150 -0.4628 -0.8286
vn 0.4855 -0.5165 -0.7054
vn 0.5735 -0.7255 -0.3804
vn 0.7669 -0.6373 -0.0756
vn 0.2014 -0.1039 -0.9740
vn 0.5368 -0.6379 -0.5522
vn 0.7378 -0.3740 -0.5619
vn 0.8043 -0.4582 -0.3783
vn 0.9533 -0.2921 -0.0763
vn 0.5005 -0.2630 -0.8248
vn 0.6772 -0.2199 -0.7022
vn 0.3347 -0.1641 -0.9279
vn 0.4992 -0.0948 -0.8613
vn 0.8219 -0.1448 -0.5509
vn 0.9804 -0.0825 -0.1789
vn 0.8927 -0.1918 -0.4077
vn 0.6910 -0.0987 -0.7161
vn 0.0003 1.0000 0.0002
vn -0.0017 1.0000 -0.0010
vn 0.0002 1.0000 0.0021
vn 0.9511 -0.0967 0.2933
vn 0.8504 0.0161 0.5258
vn 0.9830 -0.0214 0.1824
vn 0.8957 -0.0224 0.4441
vn 0.8422 -0.0294 0.5384
vn 0.5517 0.0189 0.8338
vn 0.3777 0.0055 0.9259
vn 0.1712 0.0464 0.9841
vn 0.5337 0.0087 0.8457
vn -0.5801 -0.0241 0.8142
vn -0.7652 0.0467 0.6421
vn -0.4102 0.0146 0.9119
vn -0.8869 -0.0008 0.4620
vn -0.9552 0.0508 0.2915
vn -0.7552 -0.0212 0.6551
vn -0.8213 -0.0041 0.5704
vn -0.9473 0.1192 0.2973
vn -0.9857 0.0005 0.1684
vn -0.9889 -0.0651 0.1332
vn -0.0001 0.0001 1.0000
vn -0.0000 -0.0000 1.0000
vn -0.9997 -0.0039 -0.0231
vn -0.9989 -0.0004 -0.0475
vn -0.9988 -0.0001 -0.0496
vn 0.9988 -0.0000 0.0497
vn 0.9919 -0.0960 0.0830
vn 0.9970 -0.0368 -0.0674
vn 0.4458 -0.8814 -0.1565
vn -0.7937 -0.4657 0.3914
vn -0.9936 -0.1090 -0.0290
vn 0.1915 0.9622 0.1936
vn -0.0534 0.9901 0.1295
vn -0.0177 0.9972 0.0725
vn -0.0000 -0.0000 -1.0000
vn -0.9984 -0.0395 0.0414
vn 0.0080 -0.0029 -1.0000
vn -0.0002 -0.0006 -1.0000
vn -0.0009 0.0006 -1.0000
vn -0.6071 -0.1233 -0.7850
vn -0.8335 -0.5473 0.0763
vn -0.6467 -0.7505 0.1361
vn 0.4923 -0.8557 0.1593
vn 0.7763 -0.6139 0.1431
vn 0.9955 -0.0856 0.0404
vn 0.9583 -0.2674 0.1011
vn -0.1177 0.9784 -0.1702
vn 0.0537 0.9901 -0.1297
vn 0.0141 0.9970 -0.0765
vn -0.0006 -0.0023 1.0000
vn -0.0005 -0.0008 1.0000
vn 0.0005 -0.0000 1.0000
vn -0.0002 -1.0000 0.0006
vn -0.0054 -0.9994 -0.0345
vn -0.0007 -1.0000 -0.0072
vn -0.0000 1.0000 -0.0000
vn 0.9611 0.0390 0.2733
vn -0.0000 -1.0000 -0.0000
vn 0.9882 0.0579 0.1416
vn 0.7278 -0.0150 0.6857
vn 0.4767 0.0349 0.8784
vn 0.2334 -0.0824 0.9689
vn -0.0735 0.0248 0.9970
vn -0.1694 -0.0087 0.9855
vn 0.0120 -0.0139 0.9998
vn -0.4586 0.0070 0.8886
vn -0.1384 -0.0027 0.9904
vn -0.0049 0.0614 -0.9981
vn 0.0011 -0.0133 -0.9999
vn 0.0014 -0.0175 -0.9998
vn -0.9821 0.0184 0.1874
vn -0.9887 -0.0870 0.1222
vn 0.0038 -0.0336 -0.9994
vn -0.0011 0.0354 -0.9994
vn -0.0014 0.0391 -0.9992
vn 0.0029 1.0000 0.0089
vn 0.0023 1.0000 0.0055
vn 0.0046 1.0000 -0.0057
vn -0.0031 1.0000 -0.0042
vn -0.0002 1.0000 -0.0002
vn -0.9998 -0.0046 -0.0189
vn 0.9858 0.1540 -0.0664
vn 0.1012 -0.9810 -0.1654
vn -0.9920 -0.1243 0.0211
vn 0.0068 1.0000 0.0044
vn -0.0193 0.9988 -0.0450
vn 0.0965 0.9834 0.1534
vn -0.0394 0.9991 -0.0133
vn 0.5424 0.7880 0.2914
vn 0.0001 0.8694 -0.4941
vn -0.0000 0.8699 -0.4933
vn 0.0102 0.9994 -0.0317
vn -0.0607 0.9691 0.2392
vn 0.1531 0.9692 -0.1929
vn -0.0852 0.9742 0.2089
vn -0.5024 0.8211 0.2710
vn -0.0000 0.8699 -0.4932
vn -0.9578 -0.2700 0.0991
vn -0.9945 0.1041 0.0106
vn -0.0004 -0.0017 -1.0000
vn 0.0001 -0.0050 -1.0000
vn 0.0771 -0.0202 -0.9968
vn 0.0037 -0.0018 -1.0000
vn -0.0088 0.0090 -0.9999
vn -0.0001 -0.0018 -1.0000
vn -0.0004 -0.0026 -1.0000
vn -0.0051 -0.0102 -0.9999
vn 0.9920 -0.1243 -0.0222
vn -0.0472 0.9892 -0.1390
vn 0.0974 0.9796 0.1756
vn -0.0869 0.9847 -0.1508
vn -0.2280 0.9610 -0.1562
vn -0.3986 0.8760 -0.2714
vn -0.0000 0.8664 0.4993
vn -0.0000 0.8664 0.4994
vn -0.0000 0.8665 0.4991
vn -0.0116 0.9993 0.0368
vn 0.0270 0.9941 -0.1051
vn -0.1495 0.9706 0.1888
vn 0.0853 0.9742 -0.2088
vn 0.5032 0.8206 -0.2709
vn 0.0011 -0.0009 1.0000
vn -0.0108 0.0087 0.9999
vn -0.0000 -0.0049 1.0000
vn -0.0017 -0.0025 1.0000
vn -0.0179 -0.0071 0.9998
vn 0.0016 0.0031 1.0000
vn 0.0010 0.0020 1.0000
vn 0.0003 -0.0049 1.0000
vn 0.0002 -1.0000 0.0001
vn 0.0005 -1.0000 0.0005
vn 0.0006 -1.0000 0.0022
vn -0.0068 -1.0000 0.0057
vn -0.0089 -0.9980 -0.0618
vn 0.9612 0.0382 0.2731
vn -0.5100 0.0097 0.8601
vn -0.0052 0.0654 -0.9978
vn 0.0040 -0.0370 -0.9993
vt 0.750000 0.658033
vt 0.749177 0.750000
vt 0.703125 0.687500
vt 0.703125 0.625000
vt 0.749251 0.937500
vt 0.624867 0.875000
vt 0.749607 0.844001
vt 0.718750 0.500000
vt 0.703125 0.562500
vt 0.671757 0.500000
vt 0.656330 0.750000
vt 0.647870 0.650482
vt 0.671875 1.000000
vt 0.526621 0.937500
vt 0.602553 0.665043
vt 0.641865 0.562500
vt 0.625000 0.500000
vt 0.640628 0.812500
vt 0.573590 0.725117
vt 0.512290 0.812500
vt 0.578286 0.562500
vt 0.549679 0.625000
vt 0.515786 0.562500
vt 0.499845 0.875000
vt 0.503895 0.750000
vt 0.512823 0.687500
vt 0.487179 0.625000
vt 0.453286 0.562500
vt 0.452759 0.655518
vt 0.422850 0.780631
vt 0.468750 0.500000
vt 0.421756 0.500000
vt 0.359359 0.875000
vt 0.419073 0.687500
vt 0.393429 0.625000
vt 0.390786 0.562500
vt 0.359262 0.500000
vt 0.390625 1.000000
vt 0.256092 0.937500
vt 0.342372 0.812500
vt 0.328286 0.562500
vt 0.296756 0.500000
vt 0.365683 0.728696
vt 0.298846 0.750000
vt 0.250720 0.836834
vt 0.325323 0.687500
vt 0.251778 0.687500
vt 0.250000 0.593770
vt 0.281250 0.593820
vt 0.250000 0.750000
vt 0.750000 0.593787
vt 0.747657 0.687500
vt 0.701320 0.625000
vt 0.743975 0.937500
vt 0.609582 0.875000
vt 0.750075 0.875000
vt 0.701154 0.750000
vt 0.671386 0.687500
vt 0.647371 0.601722
vt 0.702964 0.562500
vt 0.654969 0.812500
vt 0.626742 0.750000
vt 0.607980 0.687500
vt 0.580930 0.625000
vt 0.609375 1.000000
vt 0.485018 0.937500
vt 0.577199 0.812500
vt 0.547729 0.750000
vt 0.606568 0.562500
vt 0.545314 0.562500
vt 0.562500 0.500000
vt 0.515506 0.500000
vt 0.497588 0.812500
vt 0.544991 0.687500
vt 0.511194 0.649540
vt 0.470563 0.750000
vt 0.484536 0.562500
vt 0.441394 0.875000
vt 0.468750 0.500000
vt 0.450323 0.687500
vt 0.455929 0.625000
vt 0.422036 0.562500
vt 0.402283 0.812500
vt 0.379029 0.750000
vt 0.393429 0.625000
vt 0.359536 0.562500
vt 0.359375 1.000000
vt 0.252128 0.937500
vt 0.387823 0.687500
vt 0.330930 0.625000
vt 0.297036 0.562500
vt 0.326044 0.812500
vt 0.299676 0.750000
vt 0.315166 0.875000
vt 0.250725 0.836880
vt 0.251749 0.687500
vt 0.250000 0.593765
vt 0.281250 0.625000
vt 0.737167 0.572260
vt 0.887817 0.572251
vt 1.000000 0.572207
vt 0.950317 0.572233
vt 0.910348 0.500000
vt 0.999693 0.500000
vt 0.919067 0.927757
vt 0.910348 1.000000
vt 0.839847 0.927742
vt 0.812419 0.572260
vt 0.781250 0.500000
vt 0.830933 0.500000
vt 0.652152 1.000000
vt 0.612186 0.927767
vt 0.674662 0.927749
vt 0.575317 1.000000
vt 0.548517 0.927803
vt 0.606567 0.500000
vt 0.597653 0.572226
vt 0.544067 0.500000
vt 0.500749 1.000000
vt 0.500000 0.936074
vt 0.000000 1.000000
vt 1.000000 0.000000
vt 1.000000 1.000000
vt 0.000000 0.000000
vt 0.750000 0.562500
vt 0.750000 0.500000
vt 0.578005 0.500000
vt 0.330929 0.625000
vt 0.250000 0.546885
vt 0.483233 0.544649
vt 0.520393 0.692457
vt 0.556449 0.625000
vt 0.746826 0.543870
vt 0.675591 0.586993
vt 0.695650 0.687449
vt 0.749324 0.786524
vt 0.656250 0.500000
vt 0.609495 0.500000
vt 0.421756 0.500000
vt 0.359262 0.500000
vt 0.250000 0.546883
vt 0.296756 0.500000
vt 0.487042 0.545805
vt 0.556449 0.625000
vt 0.723446 0.702280
vt 0.701752 0.557543
vt 0.667254 0.640828
vt 0.998821 0.927792
vt 0.251122 0.010111
vt 0.443426 0.113373
vt 0.485388 0.296822
vt 0.999693 1.000000
vt 0.985388 0.296822
vt 0.815288 0.020213
vt 0.750461 0.489955
vt 0.830933 1.000000
vt 0.781250 1.000000
vt 0.731568 1.000000
vt 0.750081 0.927740
vt 0.674683 0.572251
vt 0.731567 0.500000
vt 0.986365 0.045766
vt 0.845889 0.954234
vt 0.986365 0.954234
vt 0.501705 0.579992
vt 0.500000 0.500000
vt 0.013636 0.954234
vt 0.138002 0.045766
vt 0.013636 0.045766
vt 0.750000 0.531250
vt 0.250000 0.500000
vt 0.554890 0.609172
vt 0.546555 0.586996
vt 0.532687 0.567632
vt 0.513780 0.554008
vt 0.491147 0.545429
vt 0.475319 0.543870
vt 0.475319 0.706130
vt 0.545695 0.664612
vt 0.554890 0.640828
vt 0.532687 0.682368
vt 0.487040 0.704196
vt 0.498761 0.702261
vt 0.703244 0.500000
vt 0.750000 0.546894
vt 0.746826 0.706130
vt 0.730998 0.545429
vt 0.708712 0.553823
vt 0.689458 0.567632
vt 0.666469 0.617147
vt 0.675648 0.663114
vt 0.250000 0.500000
vt 0.550273 0.593953
vt 0.538583 0.574817
vt 0.520392 0.557543
vt 0.498765 0.547740
vt 0.475319 0.543870
vt 0.545701 0.664602
vt 0.487040 0.704196
vt 0.498760 0.702262
vt 0.675648 0.663114
vt 0.695650 0.687449
vt 0.746826 0.543870
vt 0.723446 0.547720
vt 0.684452 0.573732
vt 0.671871 0.593953
vt 0.458649 0.366318
vt 0.376418 0.450248
vt 0.250461 0.489955
vt 0.358863 0.037366
vt 0.487280 0.222383
vt 0.876418 0.450248
vt 0.958649 0.366318
vt 0.987280 0.222383
vt 0.958649 0.133682
vt 0.898254 0.062689
vt 0.750000 0.010000
vt 0.669067 0.500000
vt 0.829868 0.045766
vt 0.154113 0.954234
s 1
f 5/1/1 9/2/2 10/3/3
f 5/1/1 10/3/3 11/4/4
f 7/5/5 13/6/6 8/7/7
f 51/8/8 12/9/9 16/10/10
f 15/11/11 18/12/12 10/3/3
f 10/3/3 18/12/12 11/4/4
f 7/5/5 4/13/13 17/14/14
f 18/12/12 15/11/11 21/15/15
f 16/10/10 19/16/16 20/17/17
f 14/18/18 24/19/19 15/11/11
f 14/18/18 13/6/6 23/20/20
f 22/21/21 25/22/22 29/23/23
f 13/6/6 17/14/14 26/24/24
f 23/20/20 27/25/25 24/19/19
f 24/19/19 27/25/25 28/26/26
f 28/26/26 30/27/27 25/22/22
f 29/23/23 30/27/27 31/28/28
f 28/26/26 27/25/25 35/29/29
f 23/20/20 33/30/30 27/25/25
f 54/31/31 31/28/28 55/32/32
f 17/14/14 32/33/33 26/24/24
f 34/34/34 36/35/35 35/29/29
f 55/32/32 37/36/36 56/37/37
f 4/38/13 38/39/38 17/14/14
f 32/33/33 39/40/39 33/30/30
f 56/37/37 43/41/40 57/42/41
f 40/43/42 39/40/39 44/44/43
f 32/33/33 47/45/44 39/40/39
f 41/46/45 44/44/43 45/47/46
f 45/47/46 49/48/47 46/49/48
f 32/33/33 38/39/38 47/45/44
f 47/45/44 48/50/49 44/44/43
f 61/51/50 60/52/51 65/53/52
f 62/54/53 67/55/54 63/56/55
f 64/57/56 69/58/57 60/52/51
f 69/58/57 71/59/58 65/53/52
f 65/53/52 71/59/58 66/60/59
f 68/61/60 70/62/61 64/57/56
f 70/62/61 72/63/62 69/58/57
f 72/63/62 77/64/63 71/59/58
f 62/54/53 58/65/64 75/66/65
f 67/55/54 76/67/66 68/61/60
f 76/67/66 78/68/67 70/62/61
f 73/69/68 77/64/63 80/70/69
f 81/71/70 80/70/69 109/72/71
f 67/55/54 82/73/72 76/67/66
f 79/74/73 85/75/74 77/64/63
f 82/73/72 84/76/75 78/68/67
f 80/70/69 85/75/74 86/77/76
f 67/55/54 75/66/65 83/78/77
f 109/72/71 86/77/76 110/79/78
f 85/75/74 84/76/75 87/80/79
f 86/77/76 88/81/80 90/82/81
f 82/73/72 83/78/77 89/83/82
f 89/83/82 91/84/83 84/76/75
f 90/82/81 93/85/84 94/86/85
f 58/87/64 95/88/86 75/66/65
f 92/89/87 91/84/83 98/46/88
f 94/86/85 99/90/89 101/91/90
f 97/92/91 100/93/92 91/84/83
f 96/94/93 104/95/94 97/92/91
f 98/46/88 100/93/92 102/96/95
f 102/96/95 106/97/96 103/98/97
f 96/94/93 95/88/86 104/95/94
f 104/95/94 105/50/98 100/93/92
f 137/99/99 133/100/100 144/101/101
f 131/102/102 116/103/103 114/104/104
f 132/105/105 117/106/106 134/107/107
f 135/108/108 120/109/109 118/110/110
f 126/111/111 140/112/112 138/113/113
f 128/114/114 142/115/115 140/112/112
f 125/116/116 141/117/117 127/118/118
f 130/119/119 146/120/120 142/115/115
f 1/121/121 50/122/122 3/123/121
f 3/123/123 148/121/124 1/121/125
f 150/124/126 50/122/126 2/124/126
f 11/4/4 6/125/127 5/1/1
f 3/126/128 6/125/127 12/9/9
f 15/11/11 8/7/7 14/18/18
f 8/7/7 13/6/6 14/18/18
f 19/16/16 11/4/4 18/12/12
f 9/2/2 15/11/11 10/3/3
f 21/15/15 19/16/16 18/12/12
f 16/10/10 12/9/9 19/16/16
f 7/5/5 17/14/14 13/6/6
f 22/21/21 20/17/17 19/16/16
f 29/23/23 52/127/129 22/21/21
f 21/15/15 15/11/11 24/19/19
f 14/18/18 23/20/20 24/19/19
f 21/15/15 24/19/19 25/22/22
f 22/21/21 21/15/15 25/22/22
f 54/31/31 29/23/23 31/28/28
f 23/20/20 13/6/6 26/24/24
f 24/19/19 28/26/26 25/22/22
f 29/23/23 25/22/22 30/27/27
f 33/30/30 35/29/29 27/25/25
f 28/26/26 35/29/29 30/27/27
f 33/30/30 26/24/24 32/33/33
f 31/28/28 30/27/27 35/29/29
f 36/35/35 31/28/28 35/29/29
f 55/32/32 31/28/28 37/36/36
f 42/128/130 40/43/42 41/46/45
f 33/30/30 39/40/39 40/43/42
f 34/34/34 33/30/30 40/43/42
f 34/34/34 40/43/42 36/35/35
f 17/14/14 38/39/38 32/33/33
f 56/37/37 37/36/36 43/41/40
f 42/128/130 37/36/36 36/35/35
f 46/49/48 41/46/45 45/47/46
f 41/46/45 40/43/42 44/44/43
f 39/40/39 47/45/44 44/44/43
f 149/129/131 57/42/41 46/49/48
f 43/41/40 42/128/130 46/49/48
f 57/42/41 43/41/40 46/49/48
f 45/47/46 44/44/43 48/50/49
f 147/130/132 45/131/133 4/132/134
f 149/122/135 148/121/135 147/123/135
f 1/126/136 61/51/50 66/60/59
f 3/133/137 52/134/138 56/135/139
f 59/136/140 64/57/56 60/52/51
f 61/51/50 65/53/52 66/60/59
f 68/61/60 63/56/55 67/55/54
f 108/137/141 66/60/59 71/59/58
f 59/136/140 68/61/60 64/57/56
f 60/52/51 69/58/57 65/53/52
f 64/57/56 70/62/61 69/58/57
f 108/137/141 73/69/68 74/138/142
f 69/58/57 72/63/62 71/59/58
f 78/68/67 72/63/62 70/62/61
f 73/69/68 71/59/58 77/64/63
f 67/55/54 62/54/53 75/66/65
f 68/61/60 76/67/66 70/62/61
f 81/71/70 73/69/68 80/70/69
f 72/63/62 79/74/73 77/64/63
f 85/75/74 78/68/67 84/76/75
f 80/70/69 77/64/63 85/75/74
f 76/67/66 82/73/72 78/68/67
f 82/73/72 67/55/54 83/78/77
f 90/82/81 110/79/78 86/77/76
f 109/72/71 80/70/69 86/77/76
f 86/77/76 85/75/74 88/81/80
f 85/75/74 87/80/79 88/81/80
f 82/73/72 89/83/82 84/76/75
f 91/84/83 87/80/79 84/76/75
f 93/85/84 87/80/79 92/89/87
f 94/86/85 111/139/143 90/82/81
f 90/82/81 88/81/80 93/85/84
f 96/94/93 75/66/65 95/88/86
f 96/94/93 89/83/82 83/78/77
f 99/90/89 92/89/87 98/46/88
f 89/83/82 97/92/91 91/84/83
f 101/91/90 112/140/144 94/86/85
f 94/86/85 93/85/84 99/90/89
f 98/46/88 91/84/83 100/93/92
f 103/98/97 98/46/88 102/96/95
f 97/92/91 104/95/94 100/93/92
f 150/141/145 113/142/146 101/91/90
f 101/91/90 99/90/89 103/98/97
f 101/91/90 103/98/97 106/97/96
f 102/96/95 100/93/92 105/50/98
f 148/143/147 102/131/148 58/144/149
f 113/145/150 108/146/151 110/147/152
f 138/113/153 142/115/154 143/148/155
f 130/149/156 126/150/156 121/151/156
f 132/105/105 115/152/157 117/106/106
f 120/153/158 127/154/158 114/155/158
f 144/101/159 131/102/102 114/104/104
f 118/110/110 133/100/160 135/108/108
f 131/102/102 133/100/160 116/103/103
f 134/107/107 117/106/106 119/156/161
f 121/157/162 134/107/107 119/156/161
f 137/99/163 120/109/109 135/108/108
f 121/157/162 123/158/164 136/159/165
f 138/113/113 123/158/164 126/111/111
f 139/160/166 122/161/167 137/99/163
f 125/116/116 139/160/166 141/117/117
f 129/162/168 144/163/169 114/164/170
f 126/111/111 128/114/114 140/112/112
f 128/114/114 130/119/119 142/115/115
f 127/118/118 141/117/117 145/165/171
f 127/118/118 145/165/171 129/166/172
f 115/167/173 146/168/174 130/169/175
f 144/101/101 145/165/176 141/117/177
f 141/117/177 139/160/178 137/99/99
f 137/99/99 135/108/179 133/100/100
f 133/100/100 131/102/180 144/101/101
f 144/101/101 141/117/177 137/99/99
f 1/121/121 2/124/122 50/122/122
f 3/123/123 147/123/181 148/121/124
f 150/124/126 149/122/126 50/122/126
f 11/4/4 12/9/9 6/125/127
f 12/9/9 51/8/8 3/126/128
f 3/126/128 147/170/182 6/125/127
f 15/11/11 9/2/2 8/7/7
f 19/16/16 12/9/9 11/4/4
f 21/15/15 22/21/21 19/16/16
f 22/21/21 52/127/129 20/17/17
f 29/23/23 53/72/183 52/127/129
f 54/31/31 53/72/183 29/23/23
f 33/30/30 34/34/34 35/29/29
f 33/30/30 23/20/20 26/24/24
f 36/35/35 37/36/36 31/28/28
f 42/128/130 36/35/35 40/43/42
f 42/128/130 43/41/40 37/36/36
f 46/49/48 42/128/130 41/46/45
f 46/49/48 49/48/47 149/129/131
f 149/129/131 50/171/184 57/42/41
f 7/172/185 8/173/186 9/174/187
f 9/174/187 5/175/188 6/176/189
f 147/130/190 3/177/190 50/178/191
f 9/174/187 6/176/189 147/130/132
f 4/132/134 7/172/185 9/174/187
f 47/179/192 38/180/193 4/132/134
f 45/131/133 48/181/194 47/179/192
f 149/182/195 49/183/196 45/131/133
f 147/130/190 50/178/191 149/182/197
f 4/132/134 9/174/187 147/130/132
f 45/131/133 47/179/192 4/132/134
f 147/130/132 149/182/195 45/131/133
f 149/122/135 150/124/135 148/121/135
f 66/60/59 107/184/198 1/126/136
f 1/126/136 148/185/199 61/51/50
f 57/145/200 50/186/201 3/133/137
f 3/133/137 51/187/202 16/188/203
f 16/188/203 20/189/204 52/134/138
f 52/134/138 53/190/205 54/147/206
f 54/147/206 55/191/207 56/135/139
f 56/135/139 57/145/200 3/133/137
f 3/133/137 16/188/203 52/134/138
f 52/134/138 54/147/206 56/135/139
f 68/61/60 59/136/140 63/56/55
f 108/137/141 107/184/198 66/60/59
f 108/137/141 71/59/58 73/69/68
f 78/68/67 79/74/73 72/63/62
f 81/71/70 74/138/142 73/69/68
f 85/75/74 79/74/73 78/68/67
f 90/82/81 111/139/143 110/79/78
f 91/84/83 92/89/87 87/80/79
f 93/85/84 88/81/80 87/80/79
f 94/86/85 112/140/144 111/139/143
f 96/94/93 83/78/77 75/66/65
f 96/94/93 97/92/91 89/83/82
f 99/90/89 93/85/84 92/89/87
f 101/91/90 113/142/146 112/140/144
f 103/98/97 99/90/89 98/46/88
f 101/91/90 106/97/96 150/141/145
f 150/141/145 2/192/208 113/142/146
f 62/172/209 63/193/210 59/194/211
f 59/194/211 60/195/212 61/196/213
f 148/143/214 1/197/215 2/178/216
f 59/194/211 61/196/213 148/143/147
f 58/144/149 62/172/209 59/194/211
f 104/198/217 95/180/218 58/144/149
f 102/131/148 105/181/219 104/198/217
f 150/199/220 106/200/221 102/131/148
f 148/143/214 2/178/216 150/199/216
f 58/144/149 59/194/211 148/143/147
f 102/131/148 104/198/217 58/144/149
f 148/143/147 150/199/220 102/131/148
f 111/201/222 112/202/223 113/145/150
f 113/145/150 2/186/224 1/203/225
f 1/203/225 107/204/226 108/146/151
f 108/146/151 74/205/227 81/206/228
f 81/206/228 109/190/229 110/147/152
f 110/147/152 111/201/222 113/145/150
f 113/145/150 1/203/225 108/146/151
f 108/146/151 81/206/228 110/147/152
f 143/148/155 132/105/230 134/107/231
f 134/107/231 136/159/232 138/113/153
f 138/113/153 140/112/233 142/115/154
f 142/115/154 146/120/234 143/148/155
f 143/148/155 134/107/231 138/113/153
f 121/151/156 119/207/156 117/208/156
f 117/208/156 115/209/156 130/149/156
f 130/149/156 128/210/156 126/150/156
f 126/150/156 123/211/156 121/151/156
f 121/151/156 117/208/156 130/149/156
f 132/105/105 143/148/235 115/152/157
f 116/212/158 118/213/158 120/153/158
f 120/153/158 122/214/158 124/215/158
f 124/215/158 125/216/158 127/154/158
f 127/154/158 129/217/158 114/155/158
f 114/155/158 116/212/158 120/153/158
f 120/153/158 124/215/158 127/154/158
f 118/110/110 116/103/103 133/100/160
f 121/157/162 136/159/165 134/107/107
f 137/99/163 122/161/167 120/109/109
f 138/113/113 136/159/165 123/158/164
f 139/160/166 124/218/236 122/161/167
f 125/116/116 124/218/236 139/160/166
f 129/162/168 145/219/237 144/163/169
f 115/167/173 143/220/238 146/168/174
